<svg width="28" height="29" viewBox="0 0 28 29" fill="none" xmlns="http://www.w3.org/2000/svg">
<path fill-rule="evenodd" clip-rule="evenodd" d="M9.97363 12.9951C9.97363 10.9511 11.63 9.29437 13.6731 9.29437C15.7173 9.29437 17.374 10.9509 17.374 12.9951C17.374 15.0383 15.7171 16.6946 13.6731 16.6946C11.6302 16.6946 9.97363 15.0381 9.97363 12.9951ZM13.6731 11.0021C12.5736 11.0021 11.6814 11.8939 11.6814 12.9951C11.6814 14.095 12.5733 14.9869 13.6731 14.9869C14.7744 14.9869 15.6662 14.0947 15.6662 12.9951C15.6662 11.8941 14.7742 11.0021 13.6731 11.0021Z" fill="#FFB703"/>
<path fill-rule="evenodd" clip-rule="evenodd" d="M13.6616 5.07049C9.42767 5.07049 5.97729 8.55124 5.97729 12.8676C5.97729 15.6843 7.1929 18.4646 8.82735 20.5504C9.64139 21.5893 10.5403 22.4307 11.4075 23.0059C12.2878 23.5896 13.0686 23.8558 13.6616 23.8558C14.255 23.8558 15.0361 23.5896 15.9164 23.0059C16.7839 22.4307 17.6828 21.5893 18.497 20.5504C20.1315 18.4646 21.3471 15.6843 21.3471 12.8676C21.3471 8.55139 17.8957 5.07049 13.6616 5.07049ZM4.26953 12.8676C4.26953 7.62942 8.46329 3.36273 13.6616 3.36273C18.8598 3.36273 23.0548 7.62928 23.0548 12.8676C23.0548 16.1535 21.6511 19.2942 19.8411 21.6037C18.9329 22.7626 17.9033 23.7374 16.8602 24.4292C15.83 25.1123 14.7185 25.5636 13.6616 25.5636C12.605 25.5636 11.4937 25.1123 10.4637 24.4292C9.42065 23.7374 8.39122 22.7626 7.48313 21.6037C5.67332 19.2942 4.26953 16.1535 4.26953 12.8676Z" fill="#FFB703"/>
</svg>
